# xmcd
#
# Track frame offsets: 
#        150
#        15451
#        34800
#        50433
#        66618
#        83788
#        101367
#        117158
#        132815
#        147487
#        162315
#        184128
#
# Disc length: 2654 seconds
#
# Revision: 0
# Processed by: cddbd v1.5.2PL0 Copyright (c) Steve Scherf et al.
# Submitted via: ExactAudioCopy v0.99pb5
#
DISCID=a30a5c0c
DTITLE=Various Artist - ...Feeling Blue
DYEAR=2000
DGENRE=Blues
TTITLE0=Feeling Blue
TTITLE1=It Might Be You
TTITLE2=Tonight I Give In
TTITLE3=Don't Give Up On Us
TTITLE4=I'll Never Get Over You Getting Over Me
TTITLE5=Just When I Needed You Most
TTITLE6=The Tragedy Of Love
TTITLE7=I'll Never Love This Way Again
TTITLE8=The Way We Used To Be
TTITLE9=Without You
TTITLE10=Cry For Help
TTITLE11=I Got Caught Dancing Again
EXTD=
EXTT0=
EXTT1=
EXTT2=
EXTT3=
EXTT4=
EXTT5=
EXTT6=
EXTT7=
EXTT8=
EXTT9=
EXTT10=
EXTT11=
PLAYORDER=
